. 
 
http://www.torrenting.com          :     Once & For all ;)


               www . Torrenting . Com 

(((((((((((((= Enjoy No RAR releases =))))))))))))))))))))


...................................NFO:....................................

.








































          
          
              
              
                    
                    
                    
                    

The.Double.2011.BRRip.XviD.AC3-SiC

Poster:
[IMG]http://img838.imageshack.us/img838/4203/mv5bmjiwnjm5nte1m15bml5.jpg[/IMG]

IMDB Link:
http://www.imdb.com/title/tt1646980/

Description:
A retired CIA operative is paired with a young FBI agent to unravel the mystery of a senator's murder, with all signs pointing to a Soviet assassin. 

MediaInfo:
General
Complete name                    : The.Double.2011.BRRip.XviD.AC3-SiC.avi
Format                           : AVI
Format/Info                      : Audio Video Interleave
File size                        : 1.37 GiB
Duration                         : 1h 38mn
Overall bit rate                 : 1 994 Kbps

Video
ID                               : 0
Format                           : MPEG-4 Visual
Format profile                   : Advanced Simple@L5
Format settings, BVOP            : 2
Format settings, QPel            : No
Format settings, GMC             : No warppoints
Format settings, Matrix          : Default (MPEG)
Muxing mode                      : Packed bitstream
Codec ID                         : XVID
Codec ID/Hint                    : XviD
Duration                         : 1h 38mn
Bit rate                         : 1 602 Kbps
Width                            : 720 pixels
Height                           : 304 pixels
Display aspect ratio             : 2.35:1
Frame rate                       : 23.976 fps
Color space                      : YUV
Chroma subsampling               : 4:2:0
Bit depth                        : 8 bits
Scan type                        : Progressive
Compression mode                 : Lossy
Bits/(Pixel*Frame)               : 0.305
Stream size                      : 1.10 GiB (80%)
Writing library                  : XviD 64

Audio
ID                               : 1
Format                           : AC-3
Format/Info                      : Audio Coding 3
Mode extension                   : CM (complete main)
Codec ID                         : 2000
Duration                         : 1h 38mn
Bit rate mode                    : Constant
Bit rate                         : 384 Kbps
Channel(s)                       : 6 channels
Channel positions                : Front: L C R, Side: L R, LFE
Sampling rate                    : 48.0 KHz
Bit depth                        : 16 bits
Compression mode                 : Lossy
Stream size                      : 270 MiB (19%)
Alignment                        : Aligned on interleaves
Interleave, duration             : 64 ms (1.53 video frames)
Interleave, preload duration     : 192 ms
Title                            : the.double.2011.1080-hd4u - [2] English


Screenshots:
[IMG]http://img202.imageshack.us/img202/4859/snap1gd.png[/IMG]
[IMG]http://img861.imageshack.us/img861/4370/snap2l.png[/IMG]
[IMG]http://img80.imageshack.us/img80/9859/snap3j.png[/IMG]
[IMG]http://img838.imageshack.us/img838/971/snap4sm.png[/IMG]
[IMG]http://img841.imageshack.us/img841/4347/snap5qw.png[/IMG]

Note : did my thingturned out nice

Source: 1080p HD4U thnx

Enjoy!

Respects to T00NG0D, ELEKTRI4KA, PA, YeFsTe, MrRep and everyone in the struggle...